<?xml version="1.0" encoding="utf-8"?>
<!-- Generator: Adobe Illustrator 25.2.3, SVG Export Plug-In . SVG Version: 6.00 Build 0)  -->
<svg version="1.1" id="Isolationsmodus" xmlns="http://www.w3.org/2000/svg" xmlns:xlink="http://www.w3.org/1999/xlink" x="0px"
	 y="0px" viewBox="0 0 203.3 48.6" style="enable-background:new 0 0 203.3 48.6;" xml:space="preserve">
<style type="text/css">
	.st0{fill:#CB3B2A;}
	.st1{fill:#1E408F;}
</style>
<g>
	<path class="st0" d="M34.7,0c-8.6,21.2-20.4,23.2-20.4,23.2C17.2,2.5,34.7,0,34.7,0"/>
	<path class="st0" d="M47.5,33.8C25.3,19.2,27.7,14.1,27.7,14.1C51.3,21.1,47.5,33.8,47.5,33.8"/>
	<path class="st0" d="M13.8,48.6c8.6-21.2,20.4-23.2,20.4-23.2C31.2,46.1,13.8,48.6,13.8,48.6"/>
	<path class="st0" d="M0.2,14.8C22.5,29.4,20,34.5,20,34.5C-3.5,27.5,0.2,14.8,0.2,14.8"/>
	<path class="st1" d="M69.2,14.9v16.6h2.7c2.3,0,3.9-0.2,4.9-0.7c1-0.4,1.7-1.2,2.3-2.3c0.5-1.1,0.8-2.8,0.8-5.3
		c0-3.2-0.6-5.4-1.8-6.6c-1.2-1.2-3.2-1.8-6.1-1.8H69.2z M58.5,8h16.1c3.2,0,5.7,0.4,7.7,1.1c1.9,0.7,3.6,1.8,4.8,3.2
		c1.3,1.4,2.2,3,2.8,4.9c0.6,1.9,0.9,3.8,0.9,5.9c0,3.2-0.4,5.8-1.3,7.5c-0.9,1.8-2,3.3-3.5,4.5c-1.5,1.2-3.1,2-4.9,2.4
		c-2.4,0.5-4.5,0.8-6.4,0.8H58.5V8z"/>
	<path class="st1" d="M107.2,31.9h5.5c1.9,0,3.2-0.3,3.9-0.9c0.8-0.6,1.1-1.3,1.1-2.3c0-0.9-0.4-1.6-1.1-2.2c-0.8-0.5-2.1-0.8-4-0.8
		h-5.5V31.9z M107.2,19.9h4.7c1.7,0,2.9-0.3,3.5-0.8c0.7-0.5,1-1.2,1-2.2c0-0.9-0.3-1.6-1-2.1c-0.7-0.5-1.8-0.7-3.4-0.7h-4.8V19.9z
		 M96.3,8h20.2c3.4,0,6,0.7,7.8,2.2c1.8,1.4,2.7,3.3,2.7,5.4c0,1.8-0.6,3.3-1.9,4.6c-0.9,0.8-2.1,1.5-3.8,2c2.5,0.5,4.4,1.4,5.5,2.7
		c1.2,1.3,1.8,2.9,1.8,4.8c0,1.6-0.4,3-1.3,4.2c-0.8,1.3-2,2.2-3.5,3c-0.9,0.5-2.3,0.8-4.1,1c-2.4,0.3-4,0.4-4.8,0.4H96.3V8z"/>
	<polygon class="st1" points="130.9,8 142.2,8 150,29.9 157.8,8 168.8,8 155.8,38.4 144.1,38.4 	"/>
	<path class="st1" d="M193.9,26l9.4,2.5c-0.6,2.3-1.6,4.2-3,5.8c-1.4,1.5-3.1,2.7-5.1,3.5c-2,0.8-4.6,1.2-7.7,1.2
		c-3.8,0-6.9-0.5-9.3-1.4c-2.4-1-4.5-2.6-6.2-5.1s-2.6-5.5-2.6-9.3c0-5,1.5-8.9,4.6-11.6c3.1-2.7,7.4-4.1,13.1-4.1
		c4.4,0,7.9,0.8,10.4,2.3c2.5,1.6,4.4,3.9,5.6,7.1l-9.6,1.8c-0.3-0.9-0.7-1.6-1-2c-0.6-0.7-1.3-1.3-2.2-1.7
		c-0.9-0.4-1.8-0.6-2.9-0.6c-2.4,0-4.3,0.9-5.6,2.6c-1,1.3-1.5,3.3-1.5,6c0,3.4,0.6,5.7,1.8,6.9c1.2,1.3,2.8,1.9,5,1.9
		c2.1,0,3.6-0.5,4.7-1.5C192.7,29.4,193.4,27.9,193.9,26"/>
</g>
</svg>
